:SAMPLES-PER-SECOND 30
:FULLY-SPECIFIED
:DEGREES
1
root  83.7553 40.2841 3.46571 -146.012 -87.8163 144.778
RightUpLeg  2.84718 -9.69717 -8.81102
RightLeg  4.35643 -4.61358 3.05311
RightFoot  -3.3844 -0.204853 2.77854
RightToes  -2.9104e-010 0 -3.6325e-017
Spine  5.116 0.537231 -3.52317
Spine1  -0.0742085 -0.0336912 3.11818
HEad  7.72101 -2.0384 2.90457
LeftShoulder1  1.26717 -2.84683 -12.8453
LeftArm  -30.546 12.4877 -6.23381
LeftForeArm  30.3607 -47.4001 -9.97174
LeftHand  -0.244104 0.0205437 5.32207
RightShoulder  0.662348 0.0963662 11.2329
RightArm  -30.0399 -9.57739 8.86455
RightForeArm  7.30797 4.16584 -0.388068
RightHand  -1.65985 8.0015 -14.6311
LeftUpLeg  3.04238 5.45899 3.01684
LeftLeg  2.32379 12.6947 -4.09142
LeftFoot  -3.03347 0.115211 -1.29641
LeftToes  -1.62803e-010 -2.57217e-011 -2.5681e-011
2
root  83.7553 40.2841 3.45776 -145.21 -87.848 143.958
RightUpLeg  2.86752 -9.70198 -8.8124
RightLeg  4.37576 -4.65035 3.05765
RightFoot  -3.41814 -0.208936 2.84189
RightToes  -2.9104e-010 0 -3.6325e-017
Spine  5.22776 0.523819 -3.52082
Spine1  -0.222253 -0.0465787 3.10519
HEad  7.21296 -2.32054 2.99913
LeftShoulder1  1.29817 -2.96896 -12.9604
LeftArm  -28.6778 12.4705 -6.43894
LeftForeArm  32.9466 -45.5606 -9.09964
LeftHand  -0.244104 0.0205437 5.32207
RightShoulder  0.659211 0.0904999 11.1692
RightArm  -29.9676 -9.62414 8.87417
RightForeArm  7.3568 4.19506 -0.365042
RightHand  -1.66531 8.12144 -14.5876
LeftUpLeg  3.03243 5.4493 3.01372
LeftLeg  2.37902 12.6521 -4.06182
LeftFoot  -3.06236 0.117051 -1.325
LeftToes  -1.62803e-010 -2.57217e-011 -2.5681e-011
3
root  83.7554 40.2841 3.44298 -143.662 -87.8996 142.409
RightUpLeg  2.86854 -9.7093 -8.81008
RightLeg  4.41277 -4.74474 3.06214
RightFoot  -3.45744 -0.207415 2.81828
RightToes  -2.9104e-010 0 -3.6325e-017
Spine  5.40572 0.521905 -3.57113
Spine1  -0.482488 -0.062296 3.16981
HEad  6.55801 -2.67314 3.07362
LeftShoulder1  1.34883 -3.15237 -13.1932
LeftArm  -25.9236 12.4388 -6.69395
LeftForeArm  36.9453 -43.1409 -8.00883
LeftHand  -0.244104 0.0205437 5.32207
RightShoulder  0.64699 0.0352804 11.1035
RightArm  -29.9027 -9.65518 8.84404
RightForeArm  7.46438 4.25895 -0.34152
RightHand  -1.6716 8.26199 -14.5405
LeftUpLeg  3.01019 5.40238 2.98963
LeftLeg  2.4039 12.6135 -4.00304
LeftFoot  -3.06944 0.118496 -1.34747
LeftToes  -1.62803e-010 -2.57217e-011 -2.5681e-011
4
root  83.7568 40.2841 3.42316 -141.48 -87.9675 140.255
RightUpLeg  2.84783 -9.69947 -8.78323
RightLeg  4.43704 -4.8671 3.04676
RightFoot  -3.49282 -0.201292 2.72328
RightToes  -2.9104e-010 0 -3.6325e-017
Spine  5.606 0.538556 -3.71396
Spine1  -0.79875 -0.082441 3.37073
HEad  5.88105 -3.06817 3.09639
LeftShoulder1  1.39869 -3.31267 -13.4765
LeftArm  -22.8667 12.3235 -7.07857
LeftForeArm  41.9848 -40.6834 -6.94654
LeftHand  -0.244104 0.0205437 5.32207
RightShoulder  0.633634 -0.0402783 11.1175
RightArm  -29.8516 -9.67654 8.70591
RightForeArm  7.90568 4.32444 -0.341736
RightHand  -1.6876 8.54713 -14.3654
LeftUpLeg  2.99064 5.33979 2.96419
LeftLeg  2.33876 12.5685 -3.95666
LeftFoot  -3.02222 0.121666 -1.39675
LeftToes  -1.62803e-010 -2.57217e-011 -2.5681e-011
5
root  83.7605 40.2841 3.39987 -139.521 -88.0132 138.319
RightUpLeg  2.83031 -9.67392 -8.75327
RightLeg  4.44866 -4.938 3.01822
RightFoot  -3.53542 -0.203536 2.7581
RightToes  -2.9104e-010 0 -3.6325e-017
Spine  5.80979 0.569243 -3.86181
Spine1  -1.08506 -0.0868135 3.5652
HEad  5.1581 -3.49532 3.15124
LeftShoulder1  1.44155 -3.45763 -13.6857
LeftArm  -19.6501 12.2045 -7.62956
LeftForeArm  47.9505 -38.1424 -5.90759
LeftHand  -0.244104 0.0205437 5.32207
RightShoulder  0.61494 -0.142527 11.1168
RightArm  -29.7343 -9.72106 8.59473
RightForeArm  8.84718 4.38416 -0.343666
RightHand  -1.72643 9.21478 -14.0045
LeftUpLeg  2.9859 5.31249 2.95999
LeftLeg  2.26197 12.5174 -3.94878
LeftFoot  -2.96776 0.123568 -1.42631
LeftToes  -1.62803e-010 -2.57217e-011 -2.5681e-011
6
root  83.7635 40.2841 3.37783 -138.754 -87.9999 137.543
RightUpLeg  2.82062 -9.64399 -8.73573
RightLeg  4.47832 -4.9616 2.98084
RightFoot  -3.5818 -0.209362 2.84849
RightToes  -2.9104e-010 0 -3.6325e-017
Spine  6.04583 0.596152 -3.9166
Spine1  -1.34626 -0.0702629 3.6167
HEad  4.48548 -3.93529 3.27818
LeftShoulder1  1.47801 -3.59543 -13.811
LeftArm  -15.8714 12.1994 -8.22805
LeftForeArm  53.8786 -35.6693 -4.98178
LeftHand  -0.244104 0.0205437 5.32207
RightShoulder  0.599599 -0.213173 11.0349
RightArm  -29.4975 -9.82246 8.56872
RightForeArm  9.44578 4.43848 -0.295125
RightHand  -1.76968 9.78577 -13.832
LeftUpLeg  3.00179 5.32549 2.96766
LeftLeg  2.24356 12.4965 -3.96522
LeftFoot  -2.9536 0.119866 -1.36877
LeftToes  -1.62803e-010 -2.57217e-011 -2.5681e-011
7
root  83.764 40.2842 3.35935 -138.318 -87.9675 137.074
RightUpLeg  2.83 -9.61389 -8.72426
RightLeg  4.51762 -4.99113 2.93619
RightFoot  -3.6338 -0.204066 2.76632
RightToes  -2.9104e-010 0 -3.6325e-017
Spine  6.23623 0.573437 -3.94811
Spine1  -1.45195 -0.102083 3.63786
HEad  3.8555 -4.41089 3.4033
LeftShoulder1  1.47839 -3.57364 -13.8864
LeftArm  -10.9821 12.241 -9.00119
LeftForeArm  58.1377 -33.5408 -4.28685
LeftHand  -0.244104 0.0205437 5.32207
RightShoulder  0.608982 -0.131124 10.8539
RightArm  -29.3347 -9.96974 8.64061
RightForeArm  8.41313 4.46022 -0.200701
RightHand  -1.75517 9.22036 -14.2422
LeftUpLeg  3.05249 5.33652 2.97126
LeftLeg  2.22257 12.4768 -3.98591
LeftFoot  -2.95913 0.117645 -1.33424
LeftToes  -1.62803e-010 -2.57217e-011 -2.5681e-011
8
root  83.7653 40.2839 3.34472 -136.57 -87.9714 135.312
RightUpLeg  2.85544 -9.63552 -8.76579
RightLeg  4.53145 -4.94811 2.94996
RightFoot  -3.70433 -0.198178 2.67496
RightToes  -2.9104e-010 0 -3.6325e-017
Spine  6.34086 0.509508 -4.08788
Spine1  -1.41729 -0.205498 3.80547
HEad  3.16511 -4.92699 3.4677
LeftShoulder1  1.44581 -3.36919 -14.0441
LeftArm  -5.20994 12.2257 -9.95636
LeftForeArm  59.8074 -31.7775 -3.82208
LeftHand  -0.244104 0.0205437 5.32207
RightShoulder  0.641752 0.0841773 10.6651
RightArm  -29.354 -10.1213 8.70824
RightForeArm  6.1812 4.44203 -0.114159
RightHand  -1.63896 7.58706 -14.9165
LeftUpLeg  3.10502 5.31519 2.95404
LeftLeg  2.14599 12.4027 -4.00461
LeftFoot  -2.97553 0.126729 -1.47545
LeftToes  -1.62803e-010 -2.57217e-011 -2.5681e-011
9
root  83.7723 40.2795 3.34271 -133.616 -87.9878 132.435
RightUpLeg  2.79837 -9.82136 -8.95551
RightLeg  4.57398 -4.71289 3.13142
RightFoot  -3.79385 -0.212684 2.90004
RightToes  -2.9104e-010 0 -3.6325e-017
Spine  6.41581 0.511321 -4.31356
Spine1  -1.46815 -0.265498 4.11453
HEad  2.61622 -5.2803 3.4627
LeftShoulder1  1.45926 -3.29944 -14.4905
LeftArm  0.605047 12.2052 -10.6772
LeftForeArm  59.7027 -30.0024 -3.44303
LeftHand  -0.244104 0.0205437 5.32207
RightShoulder  0.64609 0.130324 10.5466
RightArm  -29.4197 -10.1914 8.6682
RightForeArm  5.17389 4.44816 -0.0947604
RightHand  -1.52795 6.56071 -15.076
LeftUpLeg  2.9983 5.2465 2.87537
LeftLeg  2.18958 12.3432 -3.9765
LeftFoot  -3.12936 0.141888 -1.71822
LeftToes  -1.62803e-010 -2.57217e-011 -2.5681e-011
10
root  83.7845 40.2642 3.37021 -131.221 -87.9782 130.235
RightUpLeg  2.54727 -10.1944 -9.28008
RightLeg  4.7707 -4.36615 3.4697
RightFoot  -3.9071 -0.235795 3.25864
RightToes  -2.9104e-010 0 -3.6325e-017
Spine  6.51602 0.442105 -3.93244
Spine1  -1.64825 -0.220489 3.52719
HEad  2.70073 -4.95121 3.66793
LeftShoulder1  1.46901 -3.35493 -14.4447
LeftArm  6.56402 12.4912 -11.6093
LeftForeArm  58.0015 -28.6643 -3.22701
LeftHand  -0.244104 0.0205437 5.32207
RightShoulder  0.636783 -0.00676907 11.0019
RightArm  -29.5148 -10.0663 8.42334
RightForeArm  6.34569 4.53369 -0.168235
RightHand  -1.5631 7.17708 -14.699
LeftUpLeg  2.55163 5.10344 2.69971
LeftLeg  2.68329 12.4387 -3.79844
LeftFoot  -3.6201 0.151558 -1.92308
LeftToes  -1.62803e-010 -2.57217e-011 -2.5681e-011
11
root  83.7969 40.236 3.437 -131.254 -87.9728 130.456
RightUpLeg  2.20044 -10.5818 -9.5786
RightLeg  5.13998 -4.04869 3.77863
RightFoot  -4.07265 -0.243906 3.40288
RightToes  -2.9104e-010 0 -3.6325e-017
Spine  6.75422 0.173818 -2.67723
Spine1  -1.84041 -0.145528 1.74307
HEad  2.61696 -4.48022 4.25194
LeftShoulder1  1.40799 -3.31115 -13.5156
LeftArm  13.9258 13.3468 -13.5427
LeftForeArm  52.2692 -28.9642 -3.33179
LeftHand  -0.244104 0.0205437 5.32207
RightShoulder  0.681795 0.0271274 12.1975
RightArm  -29.8166 -9.90614 8.03501
RightForeArm  7.32517 4.81759 -0.246028
RightHand  -1.70517 8.27803 -14.743
LeftUpLeg  1.84132 4.97468 2.48137
LeftLeg  3.77822 12.6259 -3.3918
LeftFoot  -4.51243 0.158111 -2.19884
LeftToes  -1.62803e-010 -2.57217e-011 -2.5681e-011
12
root  83.8035 40.1971 3.54123 -135.847 -87.966 135.011
RightUpLeg  2.03938 -10.7938 -9.75109
RightLeg  5.54555 -3.6692 3.90007
RightFoot  -4.27669 -0.248794 3.55753
RightToes  -2.9104e-010 0 -3.6325e-017
Spine  7.06352 0.768256 -3.53225
Spine1  -1.79775 0.0535034 3.98791
HEad  2.4251 -4.64901 2.99416
LeftShoulder1  1.79568 -4.35055 -16.0597
LeftArm  11.2286 13.726 -12.1541
LeftForeArm  70.1257 -19.92 -2.56644
LeftHand  -0.244104 0.0205437 5.32207
RightShoulder  0.549027 -0.496791 11.0829
RightArm  -30.4003 -10.3089 8.66867
RightForeArm  5.79774 5.72331 -0.112245
RightHand  -1.78689 8.06495 -15.6755
LeftUpLeg  1.22924 5.23261 2.3185
LeftLeg  5.27884 12.5535 -2.77339
LeftFoot  -5.67232 0.166821 -2.68587
LeftToes  -1.62803e-010 -2.57217e-011 -2.5681e-011
13
root  83.7935 40.1545 3.67899 -145.458 -87.7816 144.3
RightUpLeg  2.19162 -10.8458 -9.90426
RightLeg  5.85989 -3.07491 3.87351
RightFoot  -4.44494 -0.272326 4.01448
RightToes  -2.9104e-010 0 -3.6325e-017
Spine  6.52059 0.393799 -1.83904
Spine1  0.308238 0.0797554 1.87262
HEad  1.55773 -3.8562 3.62918
LeftShoulder1  1.53068 -3.62473 -14.5371
LeftArm  -14.9066 13.6483 -11.1719
LeftForeArm  136.703 4.15649 -0.433049
LeftHand  -0.244104 0.0205437 5.32207
RightShoulder  0.682655 0.0884323 11.8974
RightArm  -30.987 -10.3941 9.74228
RightForeArm  2.82015 6.7606 0.216688
RightHand  -1.74618 6.88753 -16.7188
LeftUpLeg  1.0286 5.90971 2.19007
LeftLeg  6.72422 12.3166 -2.11396
LeftFoot  -6.89344 0.16496 -3.17878
LeftToes  -1.62803e-010 -2.57217e-011 -2.5681e-011
14
root  83.7465 40.1179 3.85056 -156.079 -87.2681 154.532
RightUpLeg  2.49067 -10.8662 -10.1264
RightLeg  6.01577 -2.32164 3.81274
RightFoot  -4.56607 -0.294516 4.44607
RightToes  -2.9104e-010 0 -3.6325e-017
Spine  7.12166 0.542216 -1.07408
Spine1  0.29095 0.378606 1.24117
HEad  1.86296 -3.47017 3.69357
LeftShoulder1  1.61464 -3.80979 -15.1864
LeftArm  -16.5207 14.6752 -11.5165
LeftForeArm  123.984 0.965325 1.46335
LeftHand  -0.244104 0.0205437 5.32207
RightShoulder  0.803585 0.584401 12.6347
RightArm  -29.1406 -11.1349 9.89632
RightForeArm  2.11417 8.38552 1.10314
RightHand  -1.67955 6.13961 -17.0975
LeftUpLeg  1.18574 6.5712 2.03005
LeftLeg  7.77103 12.43 -1.60539
LeftFoot  -8.08224 0.145064 -3.3861
LeftToes  -1.62803e-010 -2.57217e-011 -2.5681e-011
15
root  83.6475 40.0854 4.05303 -163.388 -86.5317 161.602
RightUpLeg  2.71266 -10.875 -10.3875
RightLeg  6.07925 -1.49502 3.72342
RightFoot  -4.78406 -0.302403 4.70687
RightToes  -2.9104e-010 0 -3.6325e-017
Spine  7.24443 0.79401 -0.642431
Spine1  0.53177 0.711597 0.906065
HEad  2.38243 -3.08381 3.71779
LeftShoulder1  1.70827 -4.10608 -15.5982
LeftArm  -21.3405 15.8271 -10.9918
LeftForeArm  169.106 -4.60528 1.80653
LeftHand  -0.244104 0.0205437 5.32207
RightShoulder  0.885498 0.892181 13.1645
RightArm  -26.1957 -11.9383 10.222
RightForeArm  4.85551 10.6095 2.11421
RightHand  -1.66463 6.08905 -17.0256
LeftUpLeg  1.44678 7.01532 1.80667
LeftLeg  8.45161 12.921 -1.26886
LeftFoot  -9.27413 0.11677 -3.38955
LeftToes  -1.62803e-010 -2.57217e-011 -2.5681e-011
